# xmcd
#
# Track frame offsets:
#	150
#	23016
#	34354
#	52100
#	68215
#	86577
#	102859
#	120194
#	131257
#	145144
#	161639
#	175829
#	194116
#	205260
#	224518
#
# Disc length: 3183 seconds
#
# Revision: 1
# Processed by: cddbd v1.5.1PL0 Copyright (c) Steve Scherf et al.
# Submitted via: audiograbber 1.83.01
#
DISCID=da0c6d0f
DTITLE=Various Artist - The Blues Connection
DYEAR=2004
DGENRE=Blues
TTITLE0=Yardbirds - Five Long Years
TTITLE1=Downliners Sect - Bright Lights
TTITLE2=John Mayall's Bluesbreakers - Telephone Blues
TTITLE3=Steampackets - Can I Get A Witness
TTITLE4=Eric Burdon - See See Rider
TTITLE5=Rod Stewart - Little Miss Understood
TTITLE6=Amen Corner - Gin House Blues
TTITLE7=Eric Clapton - Snake Drive
TTITLE8=T.S, McPhee - Ain't Gonna Cry No More
TTITLE9=Sovay Brown's Blues Band - Can't Quit You Baby
TTITLE10=Eric Clapton and Jimmy Page - Draiggin' My Tail
TTITLE11=Spencer Davis Group - Don't Want You No More
TTITLE12=Canned Heat - Spoonful
TTITLE13=Graham Bond Organisation - Stormy Monday
TTITLE14=Roy Buchanan - Peter Gunn
EXTD=
EXTT0=
EXTT1=
EXTT2=
EXTT3=
EXTT4=
EXTT5=
EXTT6=
EXTT7=
EXTT8=
EXTT9=
EXTT10=
EXTT11=
EXTT12=
EXTT13=
EXTT14=
PLAYORDER=
